<mxfile modified="2021-12-02T18:31:15.715Z" host="app.diagrams.net" agent="5.0 (Windows NT 10.0; Win64; x64) AppleWebKit/537.36 (KHTML, like Gecko) Chrome/96.0.4664.45 Safari/537.36" etag="az85HJx8U28iZ1KQDNru" version="15.8.5" type="github">
  <diagram id="f106602c-feb2-e66a-4537-3a34d633f6aa" name="Page-1">
    <mxGraphModel dx="1221" dy="644" grid="1" gridSize="10" guides="1" tooltips="1" connect="1" arrows="1" fold="1" page="1" pageScale="1" pageWidth="1169" pageHeight="827" background="none" math="0" shadow="0">
      <root>
        <mxCell id="0" />
        <mxCell id="1" parent="0" />
        <mxCell id="14" value="&lt;b&gt;&lt;font color=&quot;#808080&quot;&gt;Front-End Structure Folder&lt;/font&gt;&lt;/b&gt;" style="fillColor=#bac8d3;strokeColor=#23445d;shadow=0;fontSize=14;align=left;spacing=10;9E9E9E;verticalAlign=top;spacingTop=-4;fontStyle=0;spacingLeft=40;html=1;container=0;rounded=0;gradientDirection=south;glass=0;sketch=0;fillStyle=hachure;" parent="1" vertex="1">
          <mxGeometry x="30" y="50" width="866" height="550" as="geometry" />
        </mxCell>
        <mxCell id="15" value="" style="shape=mxgraph.gcp2.google_cloud_platform;fillColor=#F6F6F6;strokeColor=none;shadow=0;gradientColor=none;rounded=0;" parent="1" vertex="1">
          <mxGeometry x="50" y="60" width="23" height="20" as="geometry">
            <mxPoint x="20" y="10" as="offset" />
          </mxGeometry>
        </mxCell>
        <mxCell id="697" value="" style="strokeColor=#dddddd;fillColor=#ffffff;shadow=1;strokeWidth=1;absoluteArcSize=1;arcSize=2;fontSize=10;fontColor=#9E9E9E;align=center;html=1;rounded=0;" parent="1" vertex="1">
          <mxGeometry x="96.63" y="121" width="143.37" height="40" as="geometry" />
        </mxCell>
        <mxCell id="698" value="&lt;font color=&quot;#000000&quot;&gt;env&lt;/font&gt;" style="dashed=0;connectable=0;html=1;fillColor=#5184F3;strokeColor=none;shape=mxgraph.gcp2.hexIcon;prIcon=cloud_storage;part=1;labelPosition=right;verticalLabelPosition=middle;align=left;verticalAlign=middle;spacingLeft=5;fontColor=#999999;fontSize=12;rounded=0;" parent="697" vertex="1">
          <mxGeometry y="0.5" width="44" height="39" relative="1" as="geometry">
            <mxPoint x="5" y="-19.5" as="offset" />
          </mxGeometry>
        </mxCell>
        <mxCell id="Ox1AzwmPm2412HumUkVL-731" style="edgeStyle=orthogonalEdgeStyle;orthogonalLoop=1;jettySize=auto;html=1;exitX=0.5;exitY=1;exitDx=0;exitDy=0;entryX=0;entryY=0.5;entryDx=0;entryDy=0;fontColor=#FFFFFF;strokeColor=#FFFFFF;rounded=0;curved=1;" edge="1" parent="1" source="703" target="Ox1AzwmPm2412HumUkVL-742">
          <mxGeometry relative="1" as="geometry">
            <mxPoint x="230.00011235955049" y="302.3253488372094" as="targetPoint" />
          </mxGeometry>
        </mxCell>
        <mxCell id="Ox1AzwmPm2412HumUkVL-754" style="edgeStyle=orthogonalEdgeStyle;orthogonalLoop=1;jettySize=auto;html=1;exitX=0.5;exitY=1;exitDx=0;exitDy=0;entryX=0;entryY=0.5;entryDx=0;entryDy=0;fontColor=#FFFFFF;strokeColor=#FFFFFF;rounded=0;curved=1;" edge="1" parent="1" source="703" target="Ox1AzwmPm2412HumUkVL-744">
          <mxGeometry relative="1" as="geometry" />
        </mxCell>
        <mxCell id="Ox1AzwmPm2412HumUkVL-755" style="edgeStyle=orthogonalEdgeStyle;orthogonalLoop=1;jettySize=auto;html=1;exitX=0.5;exitY=1;exitDx=0;exitDy=0;entryX=0;entryY=0.5;entryDx=0;entryDy=0;fontColor=#FFFFFF;strokeColor=#FFFFFF;rounded=0;curved=1;" edge="1" parent="1" source="703" target="Ox1AzwmPm2412HumUkVL-746">
          <mxGeometry relative="1" as="geometry" />
        </mxCell>
        <mxCell id="Ox1AzwmPm2412HumUkVL-756" style="edgeStyle=orthogonalEdgeStyle;orthogonalLoop=1;jettySize=auto;html=1;exitX=0.5;exitY=1;exitDx=0;exitDy=0;entryX=0;entryY=0.5;entryDx=0;entryDy=0;fontColor=#FFFFFF;strokeColor=#FFFFFF;rounded=0;curved=1;" edge="1" parent="1" source="703" target="Ox1AzwmPm2412HumUkVL-748">
          <mxGeometry relative="1" as="geometry" />
        </mxCell>
        <mxCell id="Ox1AzwmPm2412HumUkVL-757" style="edgeStyle=orthogonalEdgeStyle;orthogonalLoop=1;jettySize=auto;html=1;exitX=0.5;exitY=1;exitDx=0;exitDy=0;entryX=0;entryY=0.5;entryDx=0;entryDy=0;fontColor=#FFFFFF;strokeColor=#FFFFFF;rounded=0;curved=1;" edge="1" parent="1" source="703" target="Ox1AzwmPm2412HumUkVL-750">
          <mxGeometry relative="1" as="geometry" />
        </mxCell>
        <mxCell id="Ox1AzwmPm2412HumUkVL-758" style="edgeStyle=orthogonalEdgeStyle;orthogonalLoop=1;jettySize=auto;html=1;exitX=0.5;exitY=1;exitDx=0;exitDy=0;entryX=0;entryY=0.5;entryDx=0;entryDy=0;fontColor=#FFFFFF;strokeColor=#FFFFFF;rounded=0;curved=1;" edge="1" parent="1" source="703" target="Ox1AzwmPm2412HumUkVL-752">
          <mxGeometry relative="1" as="geometry" />
        </mxCell>
        <mxCell id="Ox1AzwmPm2412HumUkVL-770" style="edgeStyle=orthogonalEdgeStyle;curved=1;orthogonalLoop=1;jettySize=auto;html=1;exitX=0.5;exitY=1;exitDx=0;exitDy=0;entryX=0;entryY=0.5;entryDx=0;entryDy=0;fontColor=#808080;strokeColor=#FFFFFF;" edge="1" parent="1" source="703" target="Ox1AzwmPm2412HumUkVL-766">
          <mxGeometry relative="1" as="geometry" />
        </mxCell>
        <mxCell id="Ox1AzwmPm2412HumUkVL-772" style="edgeStyle=orthogonalEdgeStyle;curved=1;orthogonalLoop=1;jettySize=auto;html=1;exitX=0.5;exitY=1;exitDx=0;exitDy=0;entryX=0;entryY=0.5;entryDx=0;entryDy=0;fontColor=#808080;strokeColor=#FFFFFF;fillColor=#F2CC8F;" edge="1" parent="1" source="703" target="Ox1AzwmPm2412HumUkVL-768">
          <mxGeometry relative="1" as="geometry" />
        </mxCell>
        <mxCell id="703" value="" style="strokeColor=#dddddd;fillColor=#ffffff;shadow=1;strokeWidth=1;absoluteArcSize=1;arcSize=2;fontSize=10;fontColor=#9E9E9E;align=center;html=1;rounded=0;" parent="1" vertex="1">
          <mxGeometry x="98.32" y="180" width="140" height="40" as="geometry" />
        </mxCell>
        <mxCell id="704" value="&lt;font color=&quot;#000000&quot;&gt;src&lt;/font&gt;" style="dashed=0;connectable=0;html=1;fillColor=#5184F3;strokeColor=none;shape=mxgraph.gcp2.hexIcon;prIcon=cloud_dataflow;part=1;labelPosition=right;verticalLabelPosition=middle;align=left;verticalAlign=middle;spacingLeft=5;fontColor=#999999;fontSize=12;rounded=0;" parent="703" vertex="1">
          <mxGeometry y="0.5" width="44" height="39" relative="1" as="geometry">
            <mxPoint x="5" y="-19.5" as="offset" />
          </mxGeometry>
        </mxCell>
        <mxCell id="715" style="edgeStyle=orthogonalEdgeStyle;html=1;labelBackgroundColor=none;startFill=1;startSize=4;endArrow=blockThin;endFill=1;endSize=4;jettySize=auto;orthogonalLoop=1;strokeWidth=2;fontSize=12;fontColor=#000000;align=center;dashed=0;strokeColor=#FFFFFF;rounded=0;curved=1;" parent="1" source="697" target="703" edge="1">
          <mxGeometry relative="1" as="geometry" />
        </mxCell>
        <mxCell id="Ox1AzwmPm2412HumUkVL-742" value="" style="strokeColor=#dddddd;fillColor=#ffffff;shadow=1;strokeWidth=1;absoluteArcSize=1;arcSize=2;fontSize=10;fontColor=#9E9E9E;align=center;html=1;rounded=0;" vertex="1" parent="1">
          <mxGeometry x="239" y="280" width="144.94" height="37.67" as="geometry" />
        </mxCell>
        <mxCell id="Ox1AzwmPm2412HumUkVL-743" value="&lt;font color=&quot;#000000&quot;&gt;components&lt;/font&gt;" style="dashed=0;connectable=0;html=1;fillColor=#5184F3;strokeColor=none;shape=mxgraph.gcp2.hexIcon;prIcon=cloud_storage;part=1;labelPosition=right;verticalLabelPosition=middle;align=left;verticalAlign=middle;spacingLeft=5;fontColor=#999999;fontSize=12;rounded=0;" vertex="1" parent="Ox1AzwmPm2412HumUkVL-742">
          <mxGeometry y="0.5" width="44" height="39" relative="1" as="geometry">
            <mxPoint x="5" y="-19.5" as="offset" />
          </mxGeometry>
        </mxCell>
        <mxCell id="Ox1AzwmPm2412HumUkVL-744" value="" style="strokeColor=#dddddd;fillColor=#ffffff;shadow=1;strokeWidth=1;absoluteArcSize=1;arcSize=2;fontSize=10;fontColor=#9E9E9E;align=center;html=1;rounded=0;" vertex="1" parent="1">
          <mxGeometry x="239" y="321.83" width="144.94" height="37.67" as="geometry" />
        </mxCell>
        <mxCell id="Ox1AzwmPm2412HumUkVL-745" value="&lt;font color=&quot;#000000&quot;&gt;navigation&lt;/font&gt;" style="dashed=0;connectable=0;html=1;fillColor=#bac8d3;strokeColor=#23445d;shape=mxgraph.gcp2.hexIcon;prIcon=cloud_storage;part=1;labelPosition=right;verticalLabelPosition=middle;align=left;verticalAlign=middle;spacingLeft=5;fontSize=12;rounded=0;" vertex="1" parent="Ox1AzwmPm2412HumUkVL-744">
          <mxGeometry y="0.5" width="44" height="39" relative="1" as="geometry">
            <mxPoint x="5" y="-19.5" as="offset" />
          </mxGeometry>
        </mxCell>
        <mxCell id="Ox1AzwmPm2412HumUkVL-746" value="" style="strokeColor=#dddddd;fillColor=#ffffff;shadow=1;strokeWidth=1;absoluteArcSize=1;arcSize=2;fontSize=10;fontColor=#9E9E9E;align=center;html=1;rounded=0;" vertex="1" parent="1">
          <mxGeometry x="239" y="364" width="144.94" height="37.67" as="geometry" />
        </mxCell>
        <mxCell id="Ox1AzwmPm2412HumUkVL-747" value="&lt;font color=&quot;#000000&quot;&gt;screens&lt;/font&gt;" style="dashed=0;connectable=0;html=1;fillColor=#e51400;strokeColor=#B20000;shape=mxgraph.gcp2.hexIcon;prIcon=cloud_storage;part=1;labelPosition=right;verticalLabelPosition=middle;align=left;verticalAlign=middle;spacingLeft=5;fontSize=12;fontColor=#ffffff;rounded=0;" vertex="1" parent="Ox1AzwmPm2412HumUkVL-746">
          <mxGeometry y="0.5" width="44" height="39" relative="1" as="geometry">
            <mxPoint x="5" y="-19.5" as="offset" />
          </mxGeometry>
        </mxCell>
        <mxCell id="Ox1AzwmPm2412HumUkVL-748" value="" style="strokeColor=#dddddd;fillColor=#ffffff;shadow=1;strokeWidth=1;absoluteArcSize=1;arcSize=2;fontSize=10;fontColor=#9E9E9E;align=center;html=1;rounded=0;" vertex="1" parent="1">
          <mxGeometry x="239" y="406" width="144.94" height="37.67" as="geometry" />
        </mxCell>
        <mxCell id="Ox1AzwmPm2412HumUkVL-749" value="&lt;font color=&quot;#000000&quot;&gt;services&lt;/font&gt;" style="dashed=0;connectable=0;html=1;fillColor=#f0a30a;strokeColor=#BD7000;shape=mxgraph.gcp2.hexIcon;prIcon=cloud_storage;part=1;labelPosition=right;verticalLabelPosition=middle;align=left;verticalAlign=middle;spacingLeft=5;fontSize=12;fontColor=#000000;rounded=0;" vertex="1" parent="Ox1AzwmPm2412HumUkVL-748">
          <mxGeometry y="0.5" width="44" height="39" relative="1" as="geometry">
            <mxPoint x="5" y="-19.5" as="offset" />
          </mxGeometry>
        </mxCell>
        <mxCell id="Ox1AzwmPm2412HumUkVL-750" value="" style="strokeColor=#dddddd;fillColor=#ffffff;shadow=1;strokeWidth=1;absoluteArcSize=1;arcSize=2;fontSize=10;fontColor=#9E9E9E;align=center;html=1;rounded=0;" vertex="1" parent="1">
          <mxGeometry x="240" y="491.67" width="144.94" height="37.67" as="geometry" />
        </mxCell>
        <mxCell id="Ox1AzwmPm2412HumUkVL-751" value="&lt;font color=&quot;#000000&quot;&gt;theme&lt;/font&gt;" style="dashed=0;connectable=0;html=1;fillColor=#1ba1e2;strokeColor=#006EAF;shape=mxgraph.gcp2.hexIcon;prIcon=cloud_storage;part=1;labelPosition=right;verticalLabelPosition=middle;align=left;verticalAlign=middle;spacingLeft=5;fontSize=12;fontColor=#ffffff;rounded=0;" vertex="1" parent="Ox1AzwmPm2412HumUkVL-750">
          <mxGeometry y="0.5" width="44" height="39" relative="1" as="geometry">
            <mxPoint x="5" y="-19.5" as="offset" />
          </mxGeometry>
        </mxCell>
        <mxCell id="Ox1AzwmPm2412HumUkVL-752" value="" style="strokeColor=#dddddd;fillColor=#ffffff;shadow=1;strokeWidth=1;absoluteArcSize=1;arcSize=2;fontSize=10;fontColor=#9E9E9E;align=center;html=1;rounded=0;" vertex="1" parent="1">
          <mxGeometry x="240.32" y="535" width="144.94" height="37.67" as="geometry" />
        </mxCell>
        <mxCell id="Ox1AzwmPm2412HumUkVL-753" value="&lt;font color=&quot;#000000&quot;&gt;utils&lt;/font&gt;" style="dashed=0;connectable=0;html=1;fillColor=#60a917;strokeColor=#2D7600;shape=mxgraph.gcp2.hexIcon;prIcon=cloud_storage;part=1;labelPosition=right;verticalLabelPosition=middle;align=left;verticalAlign=middle;spacingLeft=5;fontSize=12;fontColor=#ffffff;rounded=0;" vertex="1" parent="Ox1AzwmPm2412HumUkVL-752">
          <mxGeometry y="0.5" width="44" height="39" relative="1" as="geometry">
            <mxPoint x="5" y="-19.5" as="offset" />
          </mxGeometry>
        </mxCell>
        <mxCell id="Ox1AzwmPm2412HumUkVL-759" value="External&#xa;Infrastructure&#xa;1&lt;sup&gt;st&lt;/sup&gt; Party" style="sketch=0;points=[[0,0,0],[0.25,0,0],[0.5,0,0],[0.75,0,0],[1,0,0],[1,0.25,0],[1,0.5,0],[1,0.75,0],[1,1,0],[0.75,1,0],[0.5,1,0],[0.25,1,0],[0,1,0],[0,0.75,0],[0,0.5,0],[0,0.25,0]];rounded=1;absoluteArcSize=1;arcSize=2;html=1;strokeColor=none;gradientColor=none;shadow=0;dashed=0;fontSize=12;fontColor=#9E9E9E;align=left;verticalAlign=top;spacing=10;spacingTop=-4;fillColor=#E1F5FE;glass=0;fillStyle=hachure;" vertex="1" parent="1">
          <mxGeometry x="500" y="364" width="120" height="75" as="geometry" />
        </mxCell>
        <mxCell id="Ox1AzwmPm2412HumUkVL-766" value="" style="strokeColor=#dddddd;fillColor=#ffffff;shadow=1;strokeWidth=1;absoluteArcSize=1;arcSize=2;fontSize=10;fontColor=#9E9E9E;align=center;html=1;rounded=0;" vertex="1" parent="1">
          <mxGeometry x="239.32" y="450" width="144.94" height="37.67" as="geometry" />
        </mxCell>
        <mxCell id="Ox1AzwmPm2412HumUkVL-767" value="&lt;font color=&quot;#000000&quot;&gt;store&lt;/font&gt;" style="dashed=0;connectable=0;html=1;fillColor=#647687;strokeColor=#314354;shape=mxgraph.gcp2.hexIcon;prIcon=cloud_storage;part=1;labelPosition=right;verticalLabelPosition=middle;align=left;verticalAlign=middle;spacingLeft=5;fontSize=12;fontColor=#ffffff;rounded=0;" vertex="1" parent="Ox1AzwmPm2412HumUkVL-766">
          <mxGeometry y="0.5" width="44" height="39" relative="1" as="geometry">
            <mxPoint x="5" y="-19.5" as="offset" />
          </mxGeometry>
        </mxCell>
        <mxCell id="Ox1AzwmPm2412HumUkVL-768" value="" style="strokeColor=#dddddd;fillColor=#ffffff;shadow=1;strokeWidth=1;absoluteArcSize=1;arcSize=2;fontSize=10;fontColor=#9E9E9E;align=center;html=1;rounded=0;" vertex="1" parent="1">
          <mxGeometry x="238.32" y="238" width="144.94" height="37.67" as="geometry" />
        </mxCell>
        <mxCell id="Ox1AzwmPm2412HumUkVL-769" value="&lt;font color=&quot;#000000&quot;&gt;assets&lt;/font&gt;" style="dashed=0;connectable=0;html=1;fillColor=#5184F3;strokeColor=none;shape=mxgraph.gcp2.hexIcon;prIcon=cloud_storage;part=1;labelPosition=right;verticalLabelPosition=middle;align=left;verticalAlign=middle;spacingLeft=5;fontColor=#999999;fontSize=12;rounded=0;" vertex="1" parent="Ox1AzwmPm2412HumUkVL-768">
          <mxGeometry y="0.5" width="44" height="39" relative="1" as="geometry">
            <mxPoint x="5" y="-19.5" as="offset" />
          </mxGeometry>
        </mxCell>
      </root>
    </mxGraphModel>
  </diagram>
</mxfile>
